<svg width="120" height="53" viewBox="0 0 120 53" fill="none" xmlns="http://www.w3.org/2000/svg">
<g id="clique-logo-white 1" clip-path="url(#clip0_43_184)">
<g id="Desktop">
<g id="Home">
<g id="Group">
<path id="Fill-3" fill-rule="evenodd" clip-rule="evenodd" d="M9.58004 8.59853e-09C3.69628 -0.000228608 0 4.55838 0 10.408V41.7085C0 47.6343 3.69628 52.1165 9.58004 52.1168C15.4636 52.1168 18.7826 47.7863 18.7826 41.9365V33.5794H14.0302V42.4682C14.0302 45.0514 12.5216 46.8748 9.80635 46.8748C6.93994 46.8748 5.43138 45.0514 5.43138 42.5444V9.5724C5.43138 7.14129 6.93994 5.24194 9.80635 5.24194C12.5216 5.24194 14.0302 7.14129 14.0302 9.64852V18.4612H18.7826V10.1803C18.7826 4.33022 15.4636 8.59853e-09 9.58004 8.59853e-09Z" fill="white"/>
<path id="Fill-4" fill-rule="evenodd" clip-rule="evenodd" d="M29.4443 1.04224H24V52.1167H39.6522V46.8253L29.4443 46.8251V1.04224Z" fill="white"/>
<path id="Fill-5" fill-rule="evenodd" clip-rule="evenodd" d="M43.8261 52.1167H50.087V1.04224H43.8261V52.1167Z" fill="white"/>
<path id="Fill-6" fill-rule="evenodd" clip-rule="evenodd" d="M67.7822 41.4808L64.4018 44.5955L66.0917 46.191C65.4305 46.6471 64.6222 46.8748 63.6667 46.8748C60.9481 46.8748 59.5519 44.8996 59.5519 42.5444V9.57262C59.5519 7.29332 60.9483 5.24217 63.6669 5.24217C66.386 5.24217 67.7822 7.29332 67.7822 9.57262V41.4808ZM73.073 42.0885V10.4082C73.0732 4.48248 69.3989 0 63.6669 0C57.9354 0 54.2609 4.48248 54.2609 10.4082V41.7088C54.2609 47.6345 57.9352 52.1168 63.6667 52.1168C65.5775 52.1168 67.3415 51.6609 68.8109 50.6735C69.6192 51.585 70.8683 52.1168 72.2646 52.1168C73.661 52.1168 74.3958 51.8891 75.1304 51.3571V48.0145C73.5874 48.0145 72.4853 47.6345 71.8973 47.0268C72.6319 45.8113 73.073 43.9881 73.073 42.0885Z" fill="white"/>
<path id="Fill-7" fill-rule="evenodd" clip-rule="evenodd" d="M92.8695 42.295C92.8695 45.3925 91.5281 46.9793 88.7702 46.9793C86.0126 46.9793 84.6707 45.3925 84.6707 42.2948L84.6709 1.04224H79.3043V41.9924C79.3043 48.1879 83.2547 52.1167 88.6958 52.1167C94.0619 52.1167 98.087 48.1879 98.087 41.9926V1.04224H92.8695V42.295Z" fill="white"/>
<path id="Fill-8" fill-rule="evenodd" clip-rule="evenodd" d="M120 6.18035L120 1.04247L103.304 1.04224V52.1167H120V46.9785H108.974V28.1899H116.928V23.2052H108.974V6.18035H120Z" fill="white"/>
</g>
</g>
</g>
</g>
<defs>
<clipPath id="clip0_43_184">
<rect width="120" height="52.1168" fill="white"/>
</clipPath>
</defs>
</svg>
